<mxfile host="app.diagrams.net" agent="Mozilla/5.0 (Macintosh; Intel Mac OS X 10_15_7) AppleWebKit/605.1.15 (KHTML, like Gecko) Version/18.5 Safari/605.1.15 Ddg/18.5" version="28.2.0">
  <diagram name="Pagina-1" id="AKDXOPPKQDUNT3Dliz_G">
    <mxGraphModel dx="454" dy="569" grid="1" gridSize="10" guides="1" tooltips="1" connect="1" arrows="1" fold="1" page="1" pageScale="1" pageWidth="827" pageHeight="1169" math="0" shadow="0">
      <root>
        <mxCell id="0" />
        <mxCell id="1" parent="0" />
        <mxCell id="ZgsDxwE8YMp_sZP1BxOa-1" value="NEGOZIO" style="rounded=1;whiteSpace=wrap;html=1;" vertex="1" parent="1">
          <mxGeometry x="800" y="710" width="120" height="60" as="geometry" />
        </mxCell>
        <mxCell id="ZgsDxwE8YMp_sZP1BxOa-2" value="PRODOTTO" style="rounded=1;whiteSpace=wrap;html=1;" vertex="1" parent="1">
          <mxGeometry x="1100" y="710" width="120" height="60" as="geometry" />
        </mxCell>
        <mxCell id="ZgsDxwE8YMp_sZP1BxOa-3" value="FORNITORI" style="rounded=1;whiteSpace=wrap;html=1;" vertex="1" parent="1">
          <mxGeometry x="1100" y="490" width="120" height="60" as="geometry" />
        </mxCell>
        <mxCell id="ZgsDxwE8YMp_sZP1BxOa-4" value="FATTURA" style="rounded=1;whiteSpace=wrap;html=1;" vertex="1" parent="1">
          <mxGeometry x="1100" y="930" width="120" height="60" as="geometry" />
        </mxCell>
        <mxCell id="ZgsDxwE8YMp_sZP1BxOa-5" value="TESSERA_FEDELTA&#39;" style="rounded=1;whiteSpace=wrap;html=1;" vertex="1" parent="1">
          <mxGeometry x="510" y="710" width="120" height="60" as="geometry" />
        </mxCell>
        <mxCell id="ZgsDxwE8YMp_sZP1BxOa-6" value="CLIENTE" style="rounded=1;whiteSpace=wrap;html=1;" vertex="1" parent="1">
          <mxGeometry x="510" y="490" width="120" height="60" as="geometry" />
        </mxCell>
        <mxCell id="ZgsDxwE8YMp_sZP1BxOa-7" value="MANAGER" style="rounded=1;whiteSpace=wrap;html=1;" vertex="1" parent="1">
          <mxGeometry x="1750" y="490" width="120" height="60" as="geometry" />
        </mxCell>
        <mxCell id="ZgsDxwE8YMp_sZP1BxOa-8" value="POSSIEDE" style="rhombus;whiteSpace=wrap;html=1;" vertex="1" parent="1">
          <mxGeometry x="529" y="591" width="82" height="79" as="geometry" />
        </mxCell>
        <mxCell id="ZgsDxwE8YMp_sZP1BxOa-9" value="" style="endArrow=none;html=1;rounded=0;exitX=0.5;exitY=0;exitDx=0;exitDy=0;entryX=0.5;entryY=1;entryDx=0;entryDy=0;" edge="1" parent="1" source="ZgsDxwE8YMp_sZP1BxOa-5" target="ZgsDxwE8YMp_sZP1BxOa-8">
          <mxGeometry width="50" height="50" relative="1" as="geometry">
            <mxPoint x="470" y="530" as="sourcePoint" />
            <mxPoint x="520" y="480" as="targetPoint" />
          </mxGeometry>
        </mxCell>
        <mxCell id="ZgsDxwE8YMp_sZP1BxOa-10" value="" style="endArrow=none;html=1;rounded=0;exitX=0.5;exitY=0;exitDx=0;exitDy=0;entryX=0.5;entryY=1;entryDx=0;entryDy=0;" edge="1" parent="1" source="ZgsDxwE8YMp_sZP1BxOa-8" target="ZgsDxwE8YMp_sZP1BxOa-6">
          <mxGeometry width="50" height="50" relative="1" as="geometry">
            <mxPoint x="470" y="530" as="sourcePoint" />
            <mxPoint x="520" y="480" as="targetPoint" />
          </mxGeometry>
        </mxCell>
        <mxCell id="ZgsDxwE8YMp_sZP1BxOa-11" value="(0,1)" style="text;html=1;align=center;verticalAlign=middle;whiteSpace=wrap;rounded=0;" vertex="1" parent="1">
          <mxGeometry x="590" y="554.5" width="60" height="30" as="geometry" />
        </mxCell>
        <mxCell id="ZgsDxwE8YMp_sZP1BxOa-12" value="(1,1)" style="text;html=1;align=center;verticalAlign=middle;whiteSpace=wrap;rounded=0;" vertex="1" parent="1">
          <mxGeometry x="590" y="670" width="60" height="30" as="geometry" />
        </mxCell>
        <mxCell id="ZgsDxwE8YMp_sZP1BxOa-13" value="" style="endArrow=none;html=1;rounded=0;exitX=1;exitY=0.5;exitDx=0;exitDy=0;entryX=0;entryY=0.5;entryDx=0;entryDy=0;" edge="1" parent="1" source="ZgsDxwE8YMp_sZP1BxOa-1" target="ZgsDxwE8YMp_sZP1BxOa-14">
          <mxGeometry width="50" height="50" relative="1" as="geometry">
            <mxPoint x="920" y="750" as="sourcePoint" />
            <mxPoint x="970" y="700" as="targetPoint" />
          </mxGeometry>
        </mxCell>
        <mxCell id="ZgsDxwE8YMp_sZP1BxOa-14" value="PREZZO" style="rhombus;whiteSpace=wrap;html=1;" vertex="1" parent="1">
          <mxGeometry x="970" y="700" width="80" height="80" as="geometry" />
        </mxCell>
        <mxCell id="ZgsDxwE8YMp_sZP1BxOa-15" value="" style="endArrow=none;html=1;rounded=0;entryX=0;entryY=0.5;entryDx=0;entryDy=0;exitX=1;exitY=0.5;exitDx=0;exitDy=0;" edge="1" parent="1" source="ZgsDxwE8YMp_sZP1BxOa-14" target="ZgsDxwE8YMp_sZP1BxOa-2">
          <mxGeometry width="50" height="50" relative="1" as="geometry">
            <mxPoint x="1050" y="740" as="sourcePoint" />
            <mxPoint x="1100" y="690" as="targetPoint" />
          </mxGeometry>
        </mxCell>
        <mxCell id="ZgsDxwE8YMp_sZP1BxOa-16" value="FORNISCE" style="rhombus;whiteSpace=wrap;html=1;" vertex="1" parent="1">
          <mxGeometry x="1120" y="590" width="80" height="80" as="geometry" />
        </mxCell>
        <mxCell id="ZgsDxwE8YMp_sZP1BxOa-17" value="" style="endArrow=none;html=1;rounded=0;exitX=0.5;exitY=0;exitDx=0;exitDy=0;entryX=0.5;entryY=1;entryDx=0;entryDy=0;" edge="1" parent="1" source="ZgsDxwE8YMp_sZP1BxOa-2" target="ZgsDxwE8YMp_sZP1BxOa-16">
          <mxGeometry width="50" height="50" relative="1" as="geometry">
            <mxPoint x="1230" y="740" as="sourcePoint" />
            <mxPoint x="1280" y="690" as="targetPoint" />
          </mxGeometry>
        </mxCell>
        <mxCell id="ZgsDxwE8YMp_sZP1BxOa-18" value="" style="endArrow=none;html=1;rounded=0;exitX=0.5;exitY=0;exitDx=0;exitDy=0;entryX=0.5;entryY=1;entryDx=0;entryDy=0;" edge="1" parent="1" source="ZgsDxwE8YMp_sZP1BxOa-16" target="ZgsDxwE8YMp_sZP1BxOa-3">
          <mxGeometry width="50" height="50" relative="1" as="geometry">
            <mxPoint x="1350" y="740" as="sourcePoint" />
            <mxPoint x="1400" y="690" as="targetPoint" />
          </mxGeometry>
        </mxCell>
        <mxCell id="ZgsDxwE8YMp_sZP1BxOa-19" value="RILASCIA" style="rhombus;whiteSpace=wrap;html=1;" vertex="1" parent="1">
          <mxGeometry x="680" y="700" width="80" height="80" as="geometry" />
        </mxCell>
        <mxCell id="ZgsDxwE8YMp_sZP1BxOa-20" value="" style="endArrow=none;html=1;rounded=0;exitX=1;exitY=0.5;exitDx=0;exitDy=0;entryX=0;entryY=0.5;entryDx=0;entryDy=0;" edge="1" parent="1" source="ZgsDxwE8YMp_sZP1BxOa-5" target="ZgsDxwE8YMp_sZP1BxOa-19">
          <mxGeometry width="50" height="50" relative="1" as="geometry">
            <mxPoint x="645" y="740" as="sourcePoint" />
            <mxPoint x="695" y="690" as="targetPoint" />
          </mxGeometry>
        </mxCell>
        <mxCell id="ZgsDxwE8YMp_sZP1BxOa-21" value="" style="endArrow=none;html=1;rounded=0;exitX=1;exitY=0.5;exitDx=0;exitDy=0;entryX=0;entryY=0.5;entryDx=0;entryDy=0;" edge="1" parent="1" source="ZgsDxwE8YMp_sZP1BxOa-19" target="ZgsDxwE8YMp_sZP1BxOa-1">
          <mxGeometry width="50" height="50" relative="1" as="geometry">
            <mxPoint x="740" y="700" as="sourcePoint" />
            <mxPoint x="790" y="650" as="targetPoint" />
          </mxGeometry>
        </mxCell>
        <mxCell id="ZgsDxwE8YMp_sZP1BxOa-22" value="RIGA FATTURA" style="rhombus;whiteSpace=wrap;html=1;" vertex="1" parent="1">
          <mxGeometry x="1120" y="810" width="80" height="80" as="geometry" />
        </mxCell>
        <mxCell id="ZgsDxwE8YMp_sZP1BxOa-23" value="" style="endArrow=none;html=1;rounded=0;exitX=0.5;exitY=0;exitDx=0;exitDy=0;entryX=0.5;entryY=1;entryDx=0;entryDy=0;" edge="1" parent="1" source="ZgsDxwE8YMp_sZP1BxOa-22" target="ZgsDxwE8YMp_sZP1BxOa-2">
          <mxGeometry width="50" height="50" relative="1" as="geometry">
            <mxPoint x="1090" y="800" as="sourcePoint" />
            <mxPoint x="1140" y="750" as="targetPoint" />
          </mxGeometry>
        </mxCell>
        <mxCell id="ZgsDxwE8YMp_sZP1BxOa-24" value="" style="endArrow=none;html=1;rounded=0;entryX=0.5;entryY=0;entryDx=0;entryDy=0;exitX=0.5;exitY=1;exitDx=0;exitDy=0;" edge="1" parent="1" source="ZgsDxwE8YMp_sZP1BxOa-22" target="ZgsDxwE8YMp_sZP1BxOa-4">
          <mxGeometry width="50" height="50" relative="1" as="geometry">
            <mxPoint x="1120" y="910" as="sourcePoint" />
            <mxPoint x="1140" y="750" as="targetPoint" />
          </mxGeometry>
        </mxCell>
        <mxCell id="ZgsDxwE8YMp_sZP1BxOa-25" value="Invia" style="rhombus;whiteSpace=wrap;html=1;" vertex="1" parent="1">
          <mxGeometry x="1320" y="480.5" width="80" height="80" as="geometry" />
        </mxCell>
        <mxCell id="ZgsDxwE8YMp_sZP1BxOa-26" value="" style="endArrow=none;html=1;rounded=0;exitX=1;exitY=0.5;exitDx=0;exitDy=0;entryX=0;entryY=0.5;entryDx=0;entryDy=0;" edge="1" parent="1" source="ZgsDxwE8YMp_sZP1BxOa-3" target="ZgsDxwE8YMp_sZP1BxOa-25">
          <mxGeometry width="50" height="50" relative="1" as="geometry">
            <mxPoint x="1090" y="800" as="sourcePoint" />
            <mxPoint x="1140" y="750" as="targetPoint" />
          </mxGeometry>
        </mxCell>
        <mxCell id="ZgsDxwE8YMp_sZP1BxOa-27" value="" style="endArrow=none;html=1;rounded=0;exitX=1;exitY=0.5;exitDx=0;exitDy=0;entryX=0;entryY=0.5;entryDx=0;entryDy=0;" edge="1" parent="1" source="ZgsDxwE8YMp_sZP1BxOa-2" target="ZgsDxwE8YMp_sZP1BxOa-113">
          <mxGeometry width="50" height="50" relative="1" as="geometry">
            <mxPoint x="1090" y="800" as="sourcePoint" />
            <mxPoint x="1380" y="740" as="targetPoint" />
          </mxGeometry>
        </mxCell>
        <mxCell id="ZgsDxwE8YMp_sZP1BxOa-28" value="(0,N)" style="text;html=1;align=center;verticalAlign=middle;whiteSpace=wrap;rounded=0;" vertex="1" parent="1">
          <mxGeometry x="760" y="710" width="40" height="20" as="geometry" />
        </mxCell>
        <mxCell id="ZgsDxwE8YMp_sZP1BxOa-29" value="(1,1)" style="text;html=1;align=center;verticalAlign=middle;whiteSpace=wrap;rounded=0;" vertex="1" parent="1">
          <mxGeometry x="630" y="710" width="40" height="20" as="geometry" />
        </mxCell>
        <mxCell id="ZgsDxwE8YMp_sZP1BxOa-30" value="(0,N)" style="text;html=1;align=center;verticalAlign=middle;whiteSpace=wrap;rounded=0;" vertex="1" parent="1">
          <mxGeometry x="920" y="700" width="60" height="30" as="geometry" />
        </mxCell>
        <mxCell id="ZgsDxwE8YMp_sZP1BxOa-31" value="(0,N)" style="text;html=1;align=center;verticalAlign=middle;whiteSpace=wrap;rounded=0;" vertex="1" parent="1">
          <mxGeometry x="1040" y="700" width="60" height="30" as="geometry" />
        </mxCell>
        <mxCell id="ZgsDxwE8YMp_sZP1BxOa-32" value="" style="endArrow=none;html=1;rounded=0;entryX=0;entryY=0.5;entryDx=0;entryDy=0;" edge="1" parent="1" target="ZgsDxwE8YMp_sZP1BxOa-6">
          <mxGeometry width="50" height="50" relative="1" as="geometry">
            <mxPoint x="460" y="520" as="sourcePoint" />
            <mxPoint x="490" y="520" as="targetPoint" />
          </mxGeometry>
        </mxCell>
        <mxCell id="ZgsDxwE8YMp_sZP1BxOa-33" value="" style="endArrow=none;html=1;rounded=0;exitX=0.5;exitY=0;exitDx=0;exitDy=0;" edge="1" parent="1" source="ZgsDxwE8YMp_sZP1BxOa-35">
          <mxGeometry width="50" height="50" relative="1" as="geometry">
            <mxPoint x="460" y="880" as="sourcePoint" />
            <mxPoint x="460" y="520" as="targetPoint" />
          </mxGeometry>
        </mxCell>
        <mxCell id="ZgsDxwE8YMp_sZP1BxOa-34" value="" style="endArrow=none;html=1;rounded=0;entryX=0;entryY=0.5;entryDx=0;entryDy=0;exitX=1;exitY=0.5;exitDx=0;exitDy=0;" edge="1" parent="1" source="ZgsDxwE8YMp_sZP1BxOa-35" target="ZgsDxwE8YMp_sZP1BxOa-4">
          <mxGeometry width="50" height="50" relative="1" as="geometry">
            <mxPoint x="550" y="960" as="sourcePoint" />
            <mxPoint x="770" y="740" as="targetPoint" />
          </mxGeometry>
        </mxCell>
        <mxCell id="ZgsDxwE8YMp_sZP1BxOa-35" value="RICEVE" style="rhombus;whiteSpace=wrap;html=1;" vertex="1" parent="1">
          <mxGeometry x="420" y="920" width="80" height="80" as="geometry" />
        </mxCell>
        <mxCell id="ZgsDxwE8YMp_sZP1BxOa-36" value="(0,N)" style="text;html=1;align=center;verticalAlign=middle;whiteSpace=wrap;rounded=0;" vertex="1" parent="1">
          <mxGeometry x="460" y="490" width="60" height="30" as="geometry" />
        </mxCell>
        <mxCell id="ZgsDxwE8YMp_sZP1BxOa-37" value="(1,1)" style="text;html=1;align=center;verticalAlign=middle;whiteSpace=wrap;rounded=0;" vertex="1" parent="1">
          <mxGeometry x="750" y="920" width="60" height="30" as="geometry" />
        </mxCell>
        <mxCell id="ZgsDxwE8YMp_sZP1BxOa-38" value="(1,N)" style="text;html=1;align=center;verticalAlign=middle;whiteSpace=wrap;rounded=0;" vertex="1" parent="1">
          <mxGeometry x="1170" y="880" width="60" height="30" as="geometry" />
        </mxCell>
        <mxCell id="ZgsDxwE8YMp_sZP1BxOa-39" value="(0,N)" style="text;html=1;align=center;verticalAlign=middle;whiteSpace=wrap;rounded=0;" vertex="1" parent="1">
          <mxGeometry x="1170" y="780" width="60" height="30" as="geometry" />
        </mxCell>
        <mxCell id="ZgsDxwE8YMp_sZP1BxOa-40" value="(0,N)" style="text;html=1;align=center;verticalAlign=middle;whiteSpace=wrap;rounded=0;" vertex="1" parent="1">
          <mxGeometry x="1090" y="670" width="60" height="30" as="geometry" />
        </mxCell>
        <mxCell id="ZgsDxwE8YMp_sZP1BxOa-41" value="(0,N)" style="text;html=1;align=center;verticalAlign=middle;whiteSpace=wrap;rounded=0;" vertex="1" parent="1">
          <mxGeometry x="1090" y="560" width="60" height="30" as="geometry" />
        </mxCell>
        <mxCell id="ZgsDxwE8YMp_sZP1BxOa-42" value="(0,N)" style="text;html=1;align=center;verticalAlign=middle;whiteSpace=wrap;rounded=0;" vertex="1" parent="1">
          <mxGeometry x="1230" y="470" width="60" height="30" as="geometry" />
        </mxCell>
        <mxCell id="ZgsDxwE8YMp_sZP1BxOa-43" value="(0,N)" style="text;html=1;align=center;verticalAlign=middle;whiteSpace=wrap;rounded=0;" vertex="1" parent="1">
          <mxGeometry x="1250" y="700" width="60" height="30" as="geometry" />
        </mxCell>
        <mxCell id="ZgsDxwE8YMp_sZP1BxOa-44" value="" style="endArrow=none;html=1;rounded=0;exitX=1;exitY=0;exitDx=0;exitDy=0;" edge="1" parent="1" source="ZgsDxwE8YMp_sZP1BxOa-6" target="ZgsDxwE8YMp_sZP1BxOa-45">
          <mxGeometry width="50" height="50" relative="1" as="geometry">
            <mxPoint x="520" y="340" as="sourcePoint" />
            <mxPoint x="570" y="320" as="targetPoint" />
          </mxGeometry>
        </mxCell>
        <mxCell id="ZgsDxwE8YMp_sZP1BxOa-45" value="" style="ellipse;whiteSpace=wrap;html=1;aspect=fixed;" vertex="1" parent="1">
          <mxGeometry x="660" y="440" width="10" height="10" as="geometry" />
        </mxCell>
        <mxCell id="ZgsDxwE8YMp_sZP1BxOa-46" value="C.F." style="text;html=1;align=center;verticalAlign=middle;whiteSpace=wrap;rounded=0;" vertex="1" parent="1">
          <mxGeometry x="660" y="420" width="60" height="30" as="geometry" />
        </mxCell>
        <mxCell id="ZgsDxwE8YMp_sZP1BxOa-47" value="" style="endArrow=none;html=1;rounded=0;exitX=1;exitY=0;exitDx=0;exitDy=0;" edge="1" parent="1" source="ZgsDxwE8YMp_sZP1BxOa-6" target="ZgsDxwE8YMp_sZP1BxOa-48">
          <mxGeometry width="50" height="50" relative="1" as="geometry">
            <mxPoint x="630" y="480" as="sourcePoint" />
            <mxPoint x="500" y="320" as="targetPoint" />
          </mxGeometry>
        </mxCell>
        <mxCell id="ZgsDxwE8YMp_sZP1BxOa-48" value="nome" style="text;html=1;align=center;verticalAlign=middle;whiteSpace=wrap;rounded=0;" vertex="1" parent="1">
          <mxGeometry x="580" y="370" width="60" height="30" as="geometry" />
        </mxCell>
        <mxCell id="ZgsDxwE8YMp_sZP1BxOa-49" value="" style="endArrow=none;html=1;rounded=0;entryX=0.5;entryY=1;entryDx=0;entryDy=0;" edge="1" parent="1" target="ZgsDxwE8YMp_sZP1BxOa-5">
          <mxGeometry width="50" height="50" relative="1" as="geometry">
            <mxPoint x="570" y="810" as="sourcePoint" />
            <mxPoint x="579" y="790" as="targetPoint" />
          </mxGeometry>
        </mxCell>
        <mxCell id="ZgsDxwE8YMp_sZP1BxOa-50" value="" style="ellipse;whiteSpace=wrap;html=1;aspect=fixed;" vertex="1" parent="1">
          <mxGeometry x="565" y="810" width="10" height="10" as="geometry" />
        </mxCell>
        <mxCell id="ZgsDxwE8YMp_sZP1BxOa-51" value="ID" style="text;html=1;align=center;verticalAlign=middle;whiteSpace=wrap;rounded=0;" vertex="1" parent="1">
          <mxGeometry x="540" y="820" width="60" height="30" as="geometry" />
        </mxCell>
        <mxCell id="ZgsDxwE8YMp_sZP1BxOa-52" value="" style="endArrow=none;html=1;rounded=0;exitX=0.5;exitY=1;exitDx=0;exitDy=0;" edge="1" parent="1" source="ZgsDxwE8YMp_sZP1BxOa-5">
          <mxGeometry width="50" height="50" relative="1" as="geometry">
            <mxPoint x="640" y="760" as="sourcePoint" />
            <mxPoint x="600" y="800" as="targetPoint" />
          </mxGeometry>
        </mxCell>
        <mxCell id="ZgsDxwE8YMp_sZP1BxOa-53" value="punti" style="text;html=1;align=center;verticalAlign=middle;whiteSpace=wrap;rounded=0;" vertex="1" parent="1">
          <mxGeometry x="580" y="790" width="60" height="30" as="geometry" />
        </mxCell>
        <mxCell id="ZgsDxwE8YMp_sZP1BxOa-54" value="" style="endArrow=none;html=1;rounded=0;entryX=0.5;entryY=0;entryDx=0;entryDy=0;exitX=1;exitY=1;exitDx=0;exitDy=0;" edge="1" parent="1" source="ZgsDxwE8YMp_sZP1BxOa-55" target="ZgsDxwE8YMp_sZP1BxOa-1">
          <mxGeometry width="50" height="50" relative="1" as="geometry">
            <mxPoint x="830" y="660" as="sourcePoint" />
            <mxPoint x="850" y="700" as="targetPoint" />
          </mxGeometry>
        </mxCell>
        <mxCell id="ZgsDxwE8YMp_sZP1BxOa-55" value="" style="ellipse;whiteSpace=wrap;html=1;aspect=fixed;" vertex="1" parent="1">
          <mxGeometry x="827" y="650.5" width="10" height="10" as="geometry" />
        </mxCell>
        <mxCell id="ZgsDxwE8YMp_sZP1BxOa-56" value="" style="ellipse;whiteSpace=wrap;html=1;aspect=fixed;" vertex="1" parent="1">
          <mxGeometry x="1250" y="760" width="10" height="10" as="geometry" />
        </mxCell>
        <mxCell id="ZgsDxwE8YMp_sZP1BxOa-57" value="" style="endArrow=none;html=1;rounded=0;exitX=1;exitY=0.75;exitDx=0;exitDy=0;entryX=0;entryY=0;entryDx=0;entryDy=0;" edge="1" parent="1" source="ZgsDxwE8YMp_sZP1BxOa-2" target="ZgsDxwE8YMp_sZP1BxOa-56">
          <mxGeometry width="50" height="50" relative="1" as="geometry">
            <mxPoint x="1010" y="750" as="sourcePoint" />
            <mxPoint x="1060" y="700" as="targetPoint" />
          </mxGeometry>
        </mxCell>
        <mxCell id="ZgsDxwE8YMp_sZP1BxOa-58" value="" style="endArrow=none;html=1;rounded=0;entryX=0;entryY=0.25;entryDx=0;entryDy=0;" edge="1" parent="1" target="ZgsDxwE8YMp_sZP1BxOa-3">
          <mxGeometry width="50" height="50" relative="1" as="geometry">
            <mxPoint x="1020" y="505" as="sourcePoint" />
            <mxPoint x="1060" y="700" as="targetPoint" />
          </mxGeometry>
        </mxCell>
        <mxCell id="ZgsDxwE8YMp_sZP1BxOa-59" value="" style="endArrow=none;html=1;rounded=0;exitX=0;exitY=0;exitDx=0;exitDy=0;entryX=0.5;entryY=1;entryDx=0;entryDy=0;" edge="1" parent="1" source="ZgsDxwE8YMp_sZP1BxOa-112" target="ZgsDxwE8YMp_sZP1BxOa-105">
          <mxGeometry width="50" height="50" relative="1" as="geometry">
            <mxPoint x="1640" y="630.5" as="sourcePoint" />
            <mxPoint x="1560" y="590" as="targetPoint" />
          </mxGeometry>
        </mxCell>
        <mxCell id="ZgsDxwE8YMp_sZP1BxOa-60" value="" style="endArrow=none;html=1;rounded=0;exitX=1;exitY=0.5;exitDx=0;exitDy=0;" edge="1" parent="1" source="ZgsDxwE8YMp_sZP1BxOa-4">
          <mxGeometry width="50" height="50" relative="1" as="geometry">
            <mxPoint x="1190" y="750" as="sourcePoint" />
            <mxPoint x="1260" y="960" as="targetPoint" />
          </mxGeometry>
        </mxCell>
        <mxCell id="ZgsDxwE8YMp_sZP1BxOa-61" value="" style="ellipse;whiteSpace=wrap;html=1;aspect=fixed;" vertex="1" parent="1">
          <mxGeometry x="1260" y="955" width="10" height="10" as="geometry" />
        </mxCell>
        <mxCell id="ZgsDxwE8YMp_sZP1BxOa-62" value="" style="ellipse;whiteSpace=wrap;html=1;aspect=fixed;" vertex="1" parent="1">
          <mxGeometry x="1010" y="500" width="10" height="10" as="geometry" />
        </mxCell>
        <mxCell id="ZgsDxwE8YMp_sZP1BxOa-63" value="ID" style="text;html=1;align=center;verticalAlign=middle;whiteSpace=wrap;rounded=0;" vertex="1" parent="1">
          <mxGeometry x="1270" y="945" width="60" height="30" as="geometry" />
        </mxCell>
        <mxCell id="ZgsDxwE8YMp_sZP1BxOa-64" value="ID" style="text;html=1;align=center;verticalAlign=middle;whiteSpace=wrap;rounded=0;" vertex="1" parent="1">
          <mxGeometry x="1241" y="760" width="60" height="30" as="geometry" />
        </mxCell>
        <mxCell id="ZgsDxwE8YMp_sZP1BxOa-65" value="P.IVA" style="text;html=1;align=center;verticalAlign=middle;whiteSpace=wrap;rounded=0;" vertex="1" parent="1">
          <mxGeometry x="960" y="500" width="60" height="30" as="geometry" />
        </mxCell>
        <mxCell id="ZgsDxwE8YMp_sZP1BxOa-66" value="ID" style="text;html=1;align=center;verticalAlign=middle;whiteSpace=wrap;rounded=0;" vertex="1" parent="1">
          <mxGeometry x="1520" y="404.5" width="60" height="30" as="geometry" />
        </mxCell>
        <mxCell id="ZgsDxwE8YMp_sZP1BxOa-67" value="ID" style="text;html=1;align=center;verticalAlign=middle;whiteSpace=wrap;rounded=0;" vertex="1" parent="1">
          <mxGeometry x="790" y="630.5" width="60" height="30" as="geometry" />
        </mxCell>
        <mxCell id="ZgsDxwE8YMp_sZP1BxOa-68" value="" style="endArrow=none;html=1;rounded=0;exitX=0.5;exitY=0;exitDx=0;exitDy=0;entryX=0.5;entryY=1;entryDx=0;entryDy=0;" edge="1" parent="1" source="ZgsDxwE8YMp_sZP1BxOa-1" target="ZgsDxwE8YMp_sZP1BxOa-69">
          <mxGeometry width="50" height="50" relative="1" as="geometry">
            <mxPoint x="920" y="740" as="sourcePoint" />
            <mxPoint x="860" y="680" as="targetPoint" />
          </mxGeometry>
        </mxCell>
        <mxCell id="ZgsDxwE8YMp_sZP1BxOa-69" value="Indirizzo" style="text;html=1;align=center;verticalAlign=middle;whiteSpace=wrap;rounded=0;" vertex="1" parent="1">
          <mxGeometry x="860" y="660.5" width="60" height="30" as="geometry" />
        </mxCell>
        <mxCell id="ZgsDxwE8YMp_sZP1BxOa-70" value="" style="endArrow=none;html=1;rounded=0;exitX=0.5;exitY=1;exitDx=0;exitDy=0;" edge="1" parent="1" source="ZgsDxwE8YMp_sZP1BxOa-1">
          <mxGeometry width="50" height="50" relative="1" as="geometry">
            <mxPoint x="830" y="720" as="sourcePoint" />
            <mxPoint x="830" y="810" as="targetPoint" />
          </mxGeometry>
        </mxCell>
        <mxCell id="ZgsDxwE8YMp_sZP1BxOa-71" value="Respons" style="text;html=1;align=center;verticalAlign=middle;whiteSpace=wrap;rounded=0;" vertex="1" parent="1">
          <mxGeometry x="800" y="800" width="60" height="30" as="geometry" />
        </mxCell>
        <mxCell id="ZgsDxwE8YMp_sZP1BxOa-72" value="" style="endArrow=none;html=1;rounded=0;exitX=0.5;exitY=1;exitDx=0;exitDy=0;" edge="1" parent="1" source="ZgsDxwE8YMp_sZP1BxOa-1">
          <mxGeometry width="50" height="50" relative="1" as="geometry">
            <mxPoint x="830" y="720" as="sourcePoint" />
            <mxPoint x="870" y="800" as="targetPoint" />
          </mxGeometry>
        </mxCell>
        <mxCell id="ZgsDxwE8YMp_sZP1BxOa-73" value="Orari" style="text;html=1;align=center;verticalAlign=middle;whiteSpace=wrap;rounded=0;" vertex="1" parent="1">
          <mxGeometry x="850" y="790" width="60" height="30" as="geometry" />
        </mxCell>
        <mxCell id="ZgsDxwE8YMp_sZP1BxOa-74" value="" style="endArrow=none;html=1;rounded=0;" edge="1" parent="1">
          <mxGeometry width="50" height="50" relative="1" as="geometry">
            <mxPoint x="1040" y="520" as="sourcePoint" />
            <mxPoint x="1100" y="504.5" as="targetPoint" />
          </mxGeometry>
        </mxCell>
        <mxCell id="ZgsDxwE8YMp_sZP1BxOa-75" value="Indirizzo" style="text;html=1;align=center;verticalAlign=middle;whiteSpace=wrap;rounded=0;" vertex="1" parent="1">
          <mxGeometry x="1000" y="520" width="60" height="30" as="geometry" />
        </mxCell>
        <mxCell id="ZgsDxwE8YMp_sZP1BxOa-76" value="" style="endArrow=none;html=1;rounded=0;entryX=1;entryY=0.75;entryDx=0;entryDy=0;" edge="1" parent="1" target="ZgsDxwE8YMp_sZP1BxOa-2">
          <mxGeometry width="50" height="50" relative="1" as="geometry">
            <mxPoint x="1250" y="800" as="sourcePoint" />
            <mxPoint x="1310" y="790" as="targetPoint" />
          </mxGeometry>
        </mxCell>
        <mxCell id="ZgsDxwE8YMp_sZP1BxOa-77" value="Nome" style="text;html=1;align=center;verticalAlign=middle;whiteSpace=wrap;rounded=0;" vertex="1" parent="1">
          <mxGeometry x="1240" y="790" width="60" height="30" as="geometry" />
        </mxCell>
        <mxCell id="ZgsDxwE8YMp_sZP1BxOa-78" value="" style="endArrow=none;html=1;rounded=0;exitX=1;exitY=0.75;exitDx=0;exitDy=0;entryX=0;entryY=0.5;entryDx=0;entryDy=0;" edge="1" parent="1" source="ZgsDxwE8YMp_sZP1BxOa-2" target="ZgsDxwE8YMp_sZP1BxOa-79">
          <mxGeometry width="50" height="50" relative="1" as="geometry">
            <mxPoint x="930" y="720" as="sourcePoint" />
            <mxPoint x="1280" y="750" as="targetPoint" />
          </mxGeometry>
        </mxCell>
        <mxCell id="ZgsDxwE8YMp_sZP1BxOa-79" value="Descrizione" style="text;html=1;align=center;verticalAlign=middle;whiteSpace=wrap;rounded=0;" vertex="1" parent="1">
          <mxGeometry x="1295" y="750" width="60" height="30" as="geometry" />
        </mxCell>
        <mxCell id="ZgsDxwE8YMp_sZP1BxOa-80" value="" style="endArrow=none;html=1;rounded=0;entryX=0.5;entryY=1;entryDx=0;entryDy=0;" edge="1" parent="1" source="ZgsDxwE8YMp_sZP1BxOa-97" target="ZgsDxwE8YMp_sZP1BxOa-105">
          <mxGeometry width="50" height="50" relative="1" as="geometry">
            <mxPoint x="1580" y="640.5" as="sourcePoint" />
            <mxPoint x="1480" y="660" as="targetPoint" />
          </mxGeometry>
        </mxCell>
        <mxCell id="ZgsDxwE8YMp_sZP1BxOa-81" value="" style="endArrow=none;html=1;rounded=0;entryX=1;entryY=0.5;entryDx=0;entryDy=0;exitX=0;exitY=0.25;exitDx=0;exitDy=0;" edge="1" parent="1" source="ZgsDxwE8YMp_sZP1BxOa-84" target="ZgsDxwE8YMp_sZP1BxOa-4">
          <mxGeometry width="50" height="50" relative="1" as="geometry">
            <mxPoint x="1270" y="1000" as="sourcePoint" />
            <mxPoint x="1260" y="975" as="targetPoint" />
          </mxGeometry>
        </mxCell>
        <mxCell id="ZgsDxwE8YMp_sZP1BxOa-82" value="" style="endArrow=none;html=1;rounded=0;exitX=1;exitY=0.5;exitDx=0;exitDy=0;" edge="1" parent="1" source="ZgsDxwE8YMp_sZP1BxOa-4">
          <mxGeometry width="50" height="50" relative="1" as="geometry">
            <mxPoint x="1100" y="920" as="sourcePoint" />
            <mxPoint x="1250" y="1010" as="targetPoint" />
          </mxGeometry>
        </mxCell>
        <mxCell id="ZgsDxwE8YMp_sZP1BxOa-83" value="Data acquisto" style="text;html=1;align=center;verticalAlign=middle;whiteSpace=wrap;rounded=0;" vertex="1" parent="1">
          <mxGeometry x="1235" y="1010" width="60" height="30" as="geometry" />
        </mxCell>
        <mxCell id="ZgsDxwE8YMp_sZP1BxOa-84" value="Sconto" style="text;html=1;align=center;verticalAlign=middle;whiteSpace=wrap;rounded=0;" vertex="1" parent="1">
          <mxGeometry x="1280" y="980" width="60" height="30" as="geometry" />
        </mxCell>
        <mxCell id="ZgsDxwE8YMp_sZP1BxOa-85" value="" style="endArrow=none;html=1;rounded=0;exitX=1;exitY=0.5;exitDx=0;exitDy=0;" edge="1" parent="1" source="ZgsDxwE8YMp_sZP1BxOa-4">
          <mxGeometry width="50" height="50" relative="1" as="geometry">
            <mxPoint x="1100" y="920" as="sourcePoint" />
            <mxPoint x="1280" y="920" as="targetPoint" />
          </mxGeometry>
        </mxCell>
        <mxCell id="ZgsDxwE8YMp_sZP1BxOa-86" value="Totale" style="text;html=1;align=center;verticalAlign=middle;whiteSpace=wrap;rounded=0;" vertex="1" parent="1">
          <mxGeometry x="1270" y="900" width="60" height="30" as="geometry" />
        </mxCell>
        <mxCell id="ZgsDxwE8YMp_sZP1BxOa-87" value="" style="endArrow=none;html=1;rounded=0;exitX=0.5;exitY=0;exitDx=0;exitDy=0;" edge="1" parent="1" source="ZgsDxwE8YMp_sZP1BxOa-14">
          <mxGeometry width="50" height="50" relative="1" as="geometry">
            <mxPoint x="1040" y="720" as="sourcePoint" />
            <mxPoint x="1010" y="660" as="targetPoint" />
          </mxGeometry>
        </mxCell>
        <mxCell id="ZgsDxwE8YMp_sZP1BxOa-88" value="Prezzo_unitario" style="text;html=1;align=center;verticalAlign=middle;whiteSpace=wrap;rounded=0;" vertex="1" parent="1">
          <mxGeometry x="980" y="630.5" width="60" height="30" as="geometry" />
        </mxCell>
        <mxCell id="ZgsDxwE8YMp_sZP1BxOa-89" value="" style="endArrow=none;html=1;rounded=0;entryX=0;entryY=0.5;entryDx=0;entryDy=0;" edge="1" parent="1" target="ZgsDxwE8YMp_sZP1BxOa-16">
          <mxGeometry width="50" height="50" relative="1" as="geometry">
            <mxPoint x="1070" y="620" as="sourcePoint" />
            <mxPoint x="1110" y="620" as="targetPoint" />
          </mxGeometry>
        </mxCell>
        <mxCell id="ZgsDxwE8YMp_sZP1BxOa-90" value="Disponibilità" style="text;html=1;align=center;verticalAlign=middle;whiteSpace=wrap;rounded=0;" vertex="1" parent="1">
          <mxGeometry x="1020" y="600.5" width="60" height="30" as="geometry" />
        </mxCell>
        <mxCell id="ZgsDxwE8YMp_sZP1BxOa-91" value="" style="endArrow=none;html=1;rounded=0;" edge="1" parent="1">
          <mxGeometry width="50" height="50" relative="1" as="geometry">
            <mxPoint x="720" y="700" as="sourcePoint" />
            <mxPoint x="720" y="650" as="targetPoint" />
          </mxGeometry>
        </mxCell>
        <mxCell id="ZgsDxwE8YMp_sZP1BxOa-92" value="Data_richiesta" style="text;html=1;align=center;verticalAlign=middle;whiteSpace=wrap;rounded=0;" vertex="1" parent="1">
          <mxGeometry x="690" y="620.5" width="60" height="30" as="geometry" />
        </mxCell>
        <mxCell id="ZgsDxwE8YMp_sZP1BxOa-93" value="" style="endArrow=none;html=1;rounded=0;entryX=0;entryY=0.5;entryDx=0;entryDy=0;" edge="1" parent="1" source="ZgsDxwE8YMp_sZP1BxOa-94" target="ZgsDxwE8YMp_sZP1BxOa-22">
          <mxGeometry width="50" height="50" relative="1" as="geometry">
            <mxPoint x="1070" y="850" as="sourcePoint" />
            <mxPoint x="1100" y="860" as="targetPoint" />
          </mxGeometry>
        </mxCell>
        <mxCell id="ZgsDxwE8YMp_sZP1BxOa-94" value="&lt;div&gt;quantità&lt;/div&gt;" style="text;html=1;align=center;verticalAlign=middle;whiteSpace=wrap;rounded=0;" vertex="1" parent="1">
          <mxGeometry x="1020" y="810" width="60" height="30" as="geometry" />
        </mxCell>
        <mxCell id="ZgsDxwE8YMp_sZP1BxOa-95" value="" style="endArrow=none;html=1;rounded=0;entryX=0;entryY=0.5;entryDx=0;entryDy=0;exitX=1;exitY=0.5;exitDx=0;exitDy=0;" edge="1" parent="1" source="ZgsDxwE8YMp_sZP1BxOa-96" target="ZgsDxwE8YMp_sZP1BxOa-22">
          <mxGeometry width="50" height="50" relative="1" as="geometry">
            <mxPoint x="1050" y="860" as="sourcePoint" />
            <mxPoint x="950" y="720" as="targetPoint" />
          </mxGeometry>
        </mxCell>
        <mxCell id="ZgsDxwE8YMp_sZP1BxOa-96" value="subtotale" style="text;html=1;align=center;verticalAlign=middle;whiteSpace=wrap;rounded=0;" vertex="1" parent="1">
          <mxGeometry x="1010" y="860" width="60" height="30" as="geometry" />
        </mxCell>
        <mxCell id="ZgsDxwE8YMp_sZP1BxOa-97" value="Data consegna" style="text;html=1;align=center;verticalAlign=middle;whiteSpace=wrap;rounded=0;" vertex="1" parent="1">
          <mxGeometry x="1430" y="390" width="60" height="30" as="geometry" />
        </mxCell>
        <mxCell id="ZgsDxwE8YMp_sZP1BxOa-98" value="" style="endArrow=none;html=1;rounded=0;entryX=0;entryY=0.5;entryDx=0;entryDy=0;exitX=1;exitY=0.5;exitDx=0;exitDy=0;" edge="1" parent="1" source="ZgsDxwE8YMp_sZP1BxOa-107" target="ZgsDxwE8YMp_sZP1BxOa-7">
          <mxGeometry width="50" height="50" relative="1" as="geometry">
            <mxPoint x="1700" y="520.5" as="sourcePoint" />
            <mxPoint x="1520" y="629.5" as="targetPoint" />
          </mxGeometry>
        </mxCell>
        <mxCell id="ZgsDxwE8YMp_sZP1BxOa-99" value="(1,1)" style="text;html=1;align=center;verticalAlign=middle;whiteSpace=wrap;rounded=0;" vertex="1" parent="1">
          <mxGeometry x="1390" y="480.5" width="60" height="30" as="geometry" />
        </mxCell>
        <mxCell id="ZgsDxwE8YMp_sZP1BxOa-100" value="" style="endArrow=none;html=1;rounded=0;exitX=1;exitY=0;exitDx=0;exitDy=0;" edge="1" parent="1" source="ZgsDxwE8YMp_sZP1BxOa-7" target="ZgsDxwE8YMp_sZP1BxOa-101">
          <mxGeometry width="50" height="50" relative="1" as="geometry">
            <mxPoint x="1850" y="494.5" as="sourcePoint" />
            <mxPoint x="1790" y="324.5" as="targetPoint" />
          </mxGeometry>
        </mxCell>
        <mxCell id="ZgsDxwE8YMp_sZP1BxOa-101" value="" style="ellipse;whiteSpace=wrap;html=1;aspect=fixed;" vertex="1" parent="1">
          <mxGeometry x="1880" y="444.5" width="10" height="10" as="geometry" />
        </mxCell>
        <mxCell id="ZgsDxwE8YMp_sZP1BxOa-102" value="C.F." style="text;html=1;align=center;verticalAlign=middle;whiteSpace=wrap;rounded=0;" vertex="1" parent="1">
          <mxGeometry x="1880" y="420" width="60" height="30" as="geometry" />
        </mxCell>
        <mxCell id="ZgsDxwE8YMp_sZP1BxOa-103" value="" style="endArrow=none;html=1;rounded=0;exitX=1;exitY=0;exitDx=0;exitDy=0;" edge="1" parent="1" source="ZgsDxwE8YMp_sZP1BxOa-7" target="ZgsDxwE8YMp_sZP1BxOa-104">
          <mxGeometry width="50" height="50" relative="1" as="geometry">
            <mxPoint x="1850" y="494.5" as="sourcePoint" />
            <mxPoint x="1720" y="324.5" as="targetPoint" />
          </mxGeometry>
        </mxCell>
        <mxCell id="ZgsDxwE8YMp_sZP1BxOa-104" value="nome" style="text;html=1;align=center;verticalAlign=middle;whiteSpace=wrap;rounded=0;" vertex="1" parent="1">
          <mxGeometry x="1800" y="374.5" width="60" height="30" as="geometry" />
        </mxCell>
        <mxCell id="ZgsDxwE8YMp_sZP1BxOa-105" value="Ordine" style="rounded=1;whiteSpace=wrap;html=1;" vertex="1" parent="1">
          <mxGeometry x="1440" y="490" width="120" height="60" as="geometry" />
        </mxCell>
        <mxCell id="ZgsDxwE8YMp_sZP1BxOa-106" value="" style="endArrow=none;html=1;rounded=0;entryX=0;entryY=0.5;entryDx=0;entryDy=0;exitX=1;exitY=0.5;exitDx=0;exitDy=0;" edge="1" parent="1" source="ZgsDxwE8YMp_sZP1BxOa-25" target="ZgsDxwE8YMp_sZP1BxOa-105">
          <mxGeometry width="50" height="50" relative="1" as="geometry">
            <mxPoint x="1390" y="690.5" as="sourcePoint" />
            <mxPoint x="1440" y="690.5" as="targetPoint" />
          </mxGeometry>
        </mxCell>
        <mxCell id="ZgsDxwE8YMp_sZP1BxOa-107" value="Effettua" style="rhombus;whiteSpace=wrap;html=1;" vertex="1" parent="1">
          <mxGeometry x="1610" y="480.5" width="80" height="80" as="geometry" />
        </mxCell>
        <mxCell id="ZgsDxwE8YMp_sZP1BxOa-108" value="" style="endArrow=none;html=1;rounded=0;entryX=0;entryY=0.5;entryDx=0;entryDy=0;exitX=1;exitY=0.5;exitDx=0;exitDy=0;" edge="1" parent="1" source="ZgsDxwE8YMp_sZP1BxOa-105" target="ZgsDxwE8YMp_sZP1BxOa-107">
          <mxGeometry width="50" height="50" relative="1" as="geometry">
            <mxPoint x="1690" y="580" as="sourcePoint" />
            <mxPoint x="1740" y="580" as="targetPoint" />
          </mxGeometry>
        </mxCell>
        <mxCell id="ZgsDxwE8YMp_sZP1BxOa-109" value="(1,1)" style="text;html=1;align=center;verticalAlign=middle;whiteSpace=wrap;rounded=0;" vertex="1" parent="1">
          <mxGeometry x="1560" y="480.5" width="60" height="30" as="geometry" />
        </mxCell>
        <mxCell id="ZgsDxwE8YMp_sZP1BxOa-110" value="(0,N)" style="text;html=1;align=center;verticalAlign=middle;whiteSpace=wrap;rounded=0;" vertex="1" parent="1">
          <mxGeometry x="1690" y="480" width="60" height="30" as="geometry" />
        </mxCell>
        <mxCell id="ZgsDxwE8YMp_sZP1BxOa-111" value="" style="endArrow=none;html=1;rounded=0;exitX=0;exitY=0;exitDx=0;exitDy=0;entryX=0.5;entryY=1;entryDx=0;entryDy=0;" edge="1" parent="1" source="ZgsDxwE8YMp_sZP1BxOa-66" target="ZgsDxwE8YMp_sZP1BxOa-112">
          <mxGeometry width="50" height="50" relative="1" as="geometry">
            <mxPoint x="1520" y="405" as="sourcePoint" />
            <mxPoint x="1500" y="550" as="targetPoint" />
          </mxGeometry>
        </mxCell>
        <mxCell id="ZgsDxwE8YMp_sZP1BxOa-112" value="" style="ellipse;whiteSpace=wrap;html=1;aspect=fixed;" vertex="1" parent="1">
          <mxGeometry x="1510" y="404.5" width="10" height="10" as="geometry" />
        </mxCell>
        <mxCell id="ZgsDxwE8YMp_sZP1BxOa-113" value="Contiene" style="rhombus;whiteSpace=wrap;html=1;" vertex="1" parent="1">
          <mxGeometry x="1460" y="700" width="80" height="80" as="geometry" />
        </mxCell>
        <mxCell id="ZgsDxwE8YMp_sZP1BxOa-114" value="" style="endArrow=none;html=1;rounded=0;entryX=0.5;entryY=1;entryDx=0;entryDy=0;" edge="1" parent="1" source="ZgsDxwE8YMp_sZP1BxOa-115" target="ZgsDxwE8YMp_sZP1BxOa-113">
          <mxGeometry width="50" height="50" relative="1" as="geometry">
            <mxPoint x="1520" y="860" as="sourcePoint" />
            <mxPoint x="1570" y="860" as="targetPoint" />
          </mxGeometry>
        </mxCell>
        <mxCell id="ZgsDxwE8YMp_sZP1BxOa-115" value="&lt;div&gt;quantità&lt;/div&gt;" style="text;html=1;align=center;verticalAlign=middle;whiteSpace=wrap;rounded=0;" vertex="1" parent="1">
          <mxGeometry x="1530" y="800" width="60" height="30" as="geometry" />
        </mxCell>
        <mxCell id="ZgsDxwE8YMp_sZP1BxOa-116" value="" style="endArrow=none;html=1;rounded=0;entryX=0.5;entryY=1;entryDx=0;entryDy=0;exitX=1;exitY=0.5;exitDx=0;exitDy=0;" edge="1" parent="1" source="ZgsDxwE8YMp_sZP1BxOa-117" target="ZgsDxwE8YMp_sZP1BxOa-113">
          <mxGeometry width="50" height="50" relative="1" as="geometry">
            <mxPoint x="1500" y="870" as="sourcePoint" />
            <mxPoint x="1570" y="860" as="targetPoint" />
          </mxGeometry>
        </mxCell>
        <mxCell id="ZgsDxwE8YMp_sZP1BxOa-117" value="prezzo" style="text;html=1;align=center;verticalAlign=middle;whiteSpace=wrap;rounded=0;" vertex="1" parent="1">
          <mxGeometry x="1440" y="810" width="60" height="30" as="geometry" />
        </mxCell>
        <mxCell id="ZgsDxwE8YMp_sZP1BxOa-118" value="" style="endArrow=none;html=1;rounded=0;entryX=0.5;entryY=1;entryDx=0;entryDy=0;exitX=0.5;exitY=0;exitDx=0;exitDy=0;" edge="1" parent="1" source="ZgsDxwE8YMp_sZP1BxOa-113" target="ZgsDxwE8YMp_sZP1BxOa-105">
          <mxGeometry width="50" height="50" relative="1" as="geometry">
            <mxPoint x="1360" y="760" as="sourcePoint" />
            <mxPoint x="1410" y="710" as="targetPoint" />
          </mxGeometry>
        </mxCell>
        <mxCell id="ZgsDxwE8YMp_sZP1BxOa-119" value="(1,1)" style="text;html=1;align=center;verticalAlign=middle;whiteSpace=wrap;rounded=0;" vertex="1" parent="1">
          <mxGeometry x="1510" y="569" width="60" height="30" as="geometry" />
        </mxCell>
        <mxCell id="ZgsDxwE8YMp_sZP1BxOa-120" value="" style="endArrow=none;html=1;rounded=0;exitX=0.5;exitY=0;exitDx=0;exitDy=0;" edge="1" parent="1" source="ZgsDxwE8YMp_sZP1BxOa-1">
          <mxGeometry width="50" height="50" relative="1" as="geometry">
            <mxPoint x="1250" y="600" as="sourcePoint" />
            <mxPoint x="860" y="330" as="targetPoint" />
          </mxGeometry>
        </mxCell>
        <mxCell id="ZgsDxwE8YMp_sZP1BxOa-121" value="" style="endArrow=none;html=1;rounded=0;" edge="1" parent="1" source="ZgsDxwE8YMp_sZP1BxOa-126">
          <mxGeometry width="50" height="50" relative="1" as="geometry">
            <mxPoint x="860" y="330" as="sourcePoint" />
            <mxPoint x="1500" y="330" as="targetPoint" />
          </mxGeometry>
        </mxCell>
        <mxCell id="ZgsDxwE8YMp_sZP1BxOa-122" value="" style="endArrow=none;html=1;rounded=0;exitX=0.5;exitY=0;exitDx=0;exitDy=0;" edge="1" parent="1" source="ZgsDxwE8YMp_sZP1BxOa-105">
          <mxGeometry width="50" height="50" relative="1" as="geometry">
            <mxPoint x="1250" y="600" as="sourcePoint" />
            <mxPoint x="1500" y="330" as="targetPoint" />
          </mxGeometry>
        </mxCell>
        <mxCell id="ZgsDxwE8YMp_sZP1BxOa-123" value="(0,N)" style="text;html=1;align=center;verticalAlign=middle;whiteSpace=wrap;rounded=0;" vertex="1" parent="1">
          <mxGeometry x="860" y="591" width="60" height="30" as="geometry" />
        </mxCell>
        <mxCell id="ZgsDxwE8YMp_sZP1BxOa-124" value="(1,1)" style="text;html=1;align=center;verticalAlign=middle;whiteSpace=wrap;rounded=0;" vertex="1" parent="1">
          <mxGeometry x="1510" y="320" width="60" height="30" as="geometry" />
        </mxCell>
        <mxCell id="ZgsDxwE8YMp_sZP1BxOa-125" value="" style="endArrow=none;html=1;rounded=0;" edge="1" parent="1" target="ZgsDxwE8YMp_sZP1BxOa-126">
          <mxGeometry width="50" height="50" relative="1" as="geometry">
            <mxPoint x="860" y="330" as="sourcePoint" />
            <mxPoint x="1500" y="330" as="targetPoint" />
          </mxGeometry>
        </mxCell>
        <mxCell id="ZgsDxwE8YMp_sZP1BxOa-126" value="Riceve" style="rhombus;whiteSpace=wrap;html=1;" vertex="1" parent="1">
          <mxGeometry x="1130" y="290" width="80" height="80" as="geometry" />
        </mxCell>
        <mxCell id="ZgsDxwE8YMp_sZP1BxOa-127" value="" style="endArrow=none;html=1;rounded=0;exitX=1;exitY=0.5;exitDx=0;exitDy=0;" edge="1" parent="1" source="ZgsDxwE8YMp_sZP1BxOa-16">
          <mxGeometry width="50" height="50" relative="1" as="geometry">
            <mxPoint x="1220" y="590" as="sourcePoint" />
            <mxPoint x="1250" y="600" as="targetPoint" />
          </mxGeometry>
        </mxCell>
        <mxCell id="ZgsDxwE8YMp_sZP1BxOa-128" value="Prezzo_unitario" style="text;html=1;align=center;verticalAlign=middle;whiteSpace=wrap;rounded=0;" vertex="1" parent="1">
          <mxGeometry x="1241" y="580" width="60" height="30" as="geometry" />
        </mxCell>
        <mxCell id="ZgsDxwE8YMp_sZP1BxOa-129" value="" style="endArrow=none;html=1;rounded=0;exitX=0.5;exitY=0;exitDx=0;exitDy=0;" edge="1" parent="1" source="ZgsDxwE8YMp_sZP1BxOa-14">
          <mxGeometry width="50" height="50" relative="1" as="geometry">
            <mxPoint x="1220" y="590" as="sourcePoint" />
            <mxPoint x="970" y="680" as="targetPoint" />
          </mxGeometry>
        </mxCell>
        <mxCell id="ZgsDxwE8YMp_sZP1BxOa-130" value="Disponibilità" style="text;html=1;align=center;verticalAlign=middle;whiteSpace=wrap;rounded=0;" vertex="1" parent="1">
          <mxGeometry x="940" y="650.5" width="60" height="30" as="geometry" />
        </mxCell>
      </root>
    </mxGraphModel>
  </diagram>
</mxfile>
